<svg width="260" height="260" viewBox="0 0 260 260" fill="none" xmlns="http://www.w3.org/2000/svg">
<circle cx="130" cy="130" r="130" fill="#064163"/>
<path d="M149.86 78C127.634 78 112.721 90.9374 112.721 116.067V133.961C114.91 132.912 117.342 132.319 119.911 132.319C122.526 132.319 124.974 132.927 127.178 134.006V116.067C127.178 99.77 136.163 91.4086 149.86 91.4086C163.558 91.4086 172.543 99.7852 172.543 116.067V155.198H187V116.067C187 90.7853 172.087 78 149.86 78Z" fill="white"/>
<path d="M119.334 136.834C116.537 136.834 113.967 137.776 111.9 139.342L98.2784 130.038C98.5825 128.974 98.7497 127.849 98.7497 126.693C98.7497 119.868 93.2008 114.319 86.3748 114.319C79.5489 114.319 74 119.868 74 126.693C74 133.519 79.5489 139.068 86.3748 139.068C89.1721 139.068 91.7414 138.126 93.8089 136.56L107.43 145.864C107.126 146.928 106.959 148.053 106.959 149.208C106.959 150.364 107.126 151.489 107.43 152.553L93.8089 161.857C91.7414 160.291 89.1569 159.349 86.3748 159.349C79.5489 159.349 74 164.897 74 171.723C74 178.549 79.5489 184.098 86.3748 184.098C93.2008 184.098 98.7497 178.549 98.7497 171.723C98.7497 170.568 98.5825 169.443 98.2784 168.379L111.9 159.075C113.967 160.641 116.552 161.583 119.334 161.583C126.16 161.583 131.709 156.034 131.709 149.208C131.709 142.382 126.16 136.834 119.334 136.834Z" fill="white"/>
</svg>
